<mxfile host="app.diagrams.net" modified="2023-11-16T08:43:31.984Z" agent="Mozilla/5.0 (Windows NT 10.0; Win64; x64) AppleWebKit/537.36 (KHTML, like Gecko) Chrome/119.0.0.0 Safari/537.36" etag="6HKnpjZYLELgtj4XlUbw" version="22.1.2" type="device">
  <diagram name="Pagina-1" id="vc0o4HYPg_XErNt8y93z">
    <mxGraphModel dx="1728" dy="922" grid="1" gridSize="10" guides="1" tooltips="1" connect="1" arrows="1" fold="1" page="1" pageScale="1" pageWidth="827" pageHeight="1169" math="0" shadow="0">
      <root>
        <mxCell id="0" />
        <mxCell id="1" parent="0" />
        <mxCell id="kyisNiYq3v3_IqwtjSco-1" value="CONTROLLER" style="rounded=1;whiteSpace=wrap;html=1;imageVerticalAlign=top;align=center;verticalAlign=middle;" parent="1" vertex="1">
          <mxGeometry x="246" y="330" width="354" height="210" as="geometry" />
        </mxCell>
        <mxCell id="9OMzCkI63R7ShawmTaVr-9" style="edgeStyle=orthogonalEdgeStyle;rounded=0;orthogonalLoop=1;jettySize=auto;html=1;exitX=0.5;exitY=1;exitDx=0;exitDy=0;entryX=0.25;entryY=0;entryDx=0;entryDy=0;" edge="1" parent="1" source="kyisNiYq3v3_IqwtjSco-6" target="kyisNiYq3v3_IqwtjSco-1">
          <mxGeometry relative="1" as="geometry" />
        </mxCell>
        <mxCell id="9OMzCkI63R7ShawmTaVr-18" value="I2C" style="edgeLabel;html=1;align=center;verticalAlign=middle;resizable=0;points=[];" vertex="1" connectable="0" parent="9OMzCkI63R7ShawmTaVr-9">
          <mxGeometry x="0.0834" y="2" relative="1" as="geometry">
            <mxPoint x="-21" y="-18" as="offset" />
          </mxGeometry>
        </mxCell>
        <mxCell id="kyisNiYq3v3_IqwtjSco-6" value="Display" style="rounded=1;whiteSpace=wrap;html=1;" parent="1" vertex="1">
          <mxGeometry x="246" y="150" width="120" height="60" as="geometry" />
        </mxCell>
        <mxCell id="9OMzCkI63R7ShawmTaVr-10" style="edgeStyle=orthogonalEdgeStyle;rounded=0;orthogonalLoop=1;jettySize=auto;html=1;exitX=0.5;exitY=1;exitDx=0;exitDy=0;entryX=0.75;entryY=0;entryDx=0;entryDy=0;" edge="1" parent="1" source="9OMzCkI63R7ShawmTaVr-1" target="kyisNiYq3v3_IqwtjSco-1">
          <mxGeometry relative="1" as="geometry" />
        </mxCell>
        <mxCell id="9OMzCkI63R7ShawmTaVr-19" value="UART" style="edgeLabel;html=1;align=center;verticalAlign=middle;resizable=0;points=[];" vertex="1" connectable="0" parent="9OMzCkI63R7ShawmTaVr-10">
          <mxGeometry x="-0.4845" relative="1" as="geometry">
            <mxPoint as="offset" />
          </mxGeometry>
        </mxCell>
        <mxCell id="9OMzCkI63R7ShawmTaVr-1" value="BLE" style="rounded=1;whiteSpace=wrap;html=1;" vertex="1" parent="1">
          <mxGeometry x="480" y="150" width="120" height="60" as="geometry" />
        </mxCell>
        <mxCell id="9OMzCkI63R7ShawmTaVr-11" style="edgeStyle=orthogonalEdgeStyle;rounded=0;orthogonalLoop=1;jettySize=auto;html=1;exitX=0;exitY=0.5;exitDx=0;exitDy=0;entryX=1;entryY=0.25;entryDx=0;entryDy=0;" edge="1" parent="1" source="9OMzCkI63R7ShawmTaVr-2" target="kyisNiYq3v3_IqwtjSco-1">
          <mxGeometry relative="1" as="geometry" />
        </mxCell>
        <mxCell id="9OMzCkI63R7ShawmTaVr-23" value="I/O" style="edgeLabel;html=1;align=center;verticalAlign=middle;resizable=0;points=[];" vertex="1" connectable="0" parent="9OMzCkI63R7ShawmTaVr-11">
          <mxGeometry x="0.0055" y="1" relative="1" as="geometry">
            <mxPoint as="offset" />
          </mxGeometry>
        </mxCell>
        <mxCell id="9OMzCkI63R7ShawmTaVr-2" value="RGB LED" style="rounded=1;whiteSpace=wrap;html=1;" vertex="1" parent="1">
          <mxGeometry x="710" y="330" width="120" height="60" as="geometry" />
        </mxCell>
        <mxCell id="9OMzCkI63R7ShawmTaVr-12" style="edgeStyle=orthogonalEdgeStyle;rounded=0;orthogonalLoop=1;jettySize=auto;html=1;exitX=0;exitY=0.5;exitDx=0;exitDy=0;" edge="1" parent="1" source="9OMzCkI63R7ShawmTaVr-3" target="kyisNiYq3v3_IqwtjSco-1">
          <mxGeometry relative="1" as="geometry" />
        </mxCell>
        <mxCell id="9OMzCkI63R7ShawmTaVr-21" value="I/O" style="edgeLabel;html=1;align=center;verticalAlign=middle;resizable=0;points=[];" vertex="1" connectable="0" parent="9OMzCkI63R7ShawmTaVr-12">
          <mxGeometry x="0.004" y="1" relative="1" as="geometry">
            <mxPoint as="offset" />
          </mxGeometry>
        </mxCell>
        <mxCell id="9OMzCkI63R7ShawmTaVr-3" value="Buttons" style="rounded=1;whiteSpace=wrap;html=1;" vertex="1" parent="1">
          <mxGeometry x="710" y="405" width="120" height="60" as="geometry" />
        </mxCell>
        <mxCell id="9OMzCkI63R7ShawmTaVr-13" style="edgeStyle=orthogonalEdgeStyle;rounded=0;orthogonalLoop=1;jettySize=auto;html=1;exitX=0;exitY=0.5;exitDx=0;exitDy=0;entryX=1;entryY=0.75;entryDx=0;entryDy=0;" edge="1" parent="1" source="9OMzCkI63R7ShawmTaVr-4" target="kyisNiYq3v3_IqwtjSco-1">
          <mxGeometry relative="1" as="geometry" />
        </mxCell>
        <mxCell id="9OMzCkI63R7ShawmTaVr-22" value="I/O" style="edgeLabel;html=1;align=center;verticalAlign=middle;resizable=0;points=[];" vertex="1" connectable="0" parent="9OMzCkI63R7ShawmTaVr-13">
          <mxGeometry x="-0.0055" relative="1" as="geometry">
            <mxPoint as="offset" />
          </mxGeometry>
        </mxCell>
        <mxCell id="9OMzCkI63R7ShawmTaVr-4" value="Battery&lt;br&gt;Controller" style="rounded=1;whiteSpace=wrap;html=1;" vertex="1" parent="1">
          <mxGeometry x="710" y="480" width="120" height="60" as="geometry" />
        </mxCell>
        <mxCell id="9OMzCkI63R7ShawmTaVr-14" style="edgeStyle=orthogonalEdgeStyle;rounded=0;orthogonalLoop=1;jettySize=auto;html=1;exitX=0.5;exitY=0;exitDx=0;exitDy=0;entryX=0.75;entryY=1;entryDx=0;entryDy=0;" edge="1" parent="1" source="9OMzCkI63R7ShawmTaVr-5" target="kyisNiYq3v3_IqwtjSco-1">
          <mxGeometry relative="1" as="geometry" />
        </mxCell>
        <mxCell id="9OMzCkI63R7ShawmTaVr-24" value="ADC" style="edgeLabel;html=1;align=center;verticalAlign=middle;resizable=0;points=[];" vertex="1" connectable="0" parent="9OMzCkI63R7ShawmTaVr-14">
          <mxGeometry x="-0.6177" relative="1" as="geometry">
            <mxPoint as="offset" />
          </mxGeometry>
        </mxCell>
        <mxCell id="9OMzCkI63R7ShawmTaVr-5" value="Battery level" style="rounded=1;whiteSpace=wrap;html=1;" vertex="1" parent="1">
          <mxGeometry x="480" y="660" width="120" height="60" as="geometry" />
        </mxCell>
        <mxCell id="9OMzCkI63R7ShawmTaVr-15" style="edgeStyle=orthogonalEdgeStyle;rounded=0;orthogonalLoop=1;jettySize=auto;html=1;exitX=0.5;exitY=0;exitDx=0;exitDy=0;entryX=0.25;entryY=1;entryDx=0;entryDy=0;" edge="1" parent="1" source="9OMzCkI63R7ShawmTaVr-6" target="kyisNiYq3v3_IqwtjSco-1">
          <mxGeometry relative="1" as="geometry" />
        </mxCell>
        <mxCell id="9OMzCkI63R7ShawmTaVr-25" value="USB" style="edgeLabel;html=1;align=center;verticalAlign=middle;resizable=0;points=[];" vertex="1" connectable="0" parent="9OMzCkI63R7ShawmTaVr-15">
          <mxGeometry x="-0.6289" relative="1" as="geometry">
            <mxPoint as="offset" />
          </mxGeometry>
        </mxCell>
        <mxCell id="9OMzCkI63R7ShawmTaVr-6" value="USB" style="rounded=1;whiteSpace=wrap;html=1;" vertex="1" parent="1">
          <mxGeometry x="246" y="660" width="120" height="60" as="geometry" />
        </mxCell>
        <mxCell id="9OMzCkI63R7ShawmTaVr-17" style="edgeStyle=orthogonalEdgeStyle;rounded=0;orthogonalLoop=1;jettySize=auto;html=1;exitX=1;exitY=0.5;exitDx=0;exitDy=0;entryX=0;entryY=0.25;entryDx=0;entryDy=0;" edge="1" parent="1" source="9OMzCkI63R7ShawmTaVr-7" target="kyisNiYq3v3_IqwtjSco-1">
          <mxGeometry relative="1" as="geometry" />
        </mxCell>
        <mxCell id="9OMzCkI63R7ShawmTaVr-27" value="SPI" style="edgeLabel;html=1;align=center;verticalAlign=middle;resizable=0;points=[];" vertex="1" connectable="0" parent="9OMzCkI63R7ShawmTaVr-17">
          <mxGeometry x="-0.0074" y="2" relative="1" as="geometry">
            <mxPoint as="offset" />
          </mxGeometry>
        </mxCell>
        <mxCell id="9OMzCkI63R7ShawmTaVr-7" value="IMU" style="rounded=1;whiteSpace=wrap;html=1;" vertex="1" parent="1">
          <mxGeometry x="20" y="330" width="120" height="60" as="geometry" />
        </mxCell>
        <mxCell id="9OMzCkI63R7ShawmTaVr-16" style="edgeStyle=orthogonalEdgeStyle;rounded=0;orthogonalLoop=1;jettySize=auto;html=1;exitX=1;exitY=0.5;exitDx=0;exitDy=0;entryX=0;entryY=0.75;entryDx=0;entryDy=0;" edge="1" parent="1" source="9OMzCkI63R7ShawmTaVr-8" target="kyisNiYq3v3_IqwtjSco-1">
          <mxGeometry relative="1" as="geometry" />
        </mxCell>
        <mxCell id="9OMzCkI63R7ShawmTaVr-26" value="SPI" style="edgeLabel;html=1;align=center;verticalAlign=middle;resizable=0;points=[];" vertex="1" connectable="0" parent="9OMzCkI63R7ShawmTaVr-16">
          <mxGeometry x="-0.0316" relative="1" as="geometry">
            <mxPoint as="offset" />
          </mxGeometry>
        </mxCell>
        <mxCell id="9OMzCkI63R7ShawmTaVr-8" value="SD card" style="rounded=1;whiteSpace=wrap;html=1;" vertex="1" parent="1">
          <mxGeometry x="20" y="480" width="120" height="60" as="geometry" />
        </mxCell>
      </root>
    </mxGraphModel>
  </diagram>
</mxfile>
